#!OML:ASF E:\emotionWalksFemale\Project 1\Capture day 1\Session 1\Female1.ASF
:FULLY-SPECIFIED
:DEGREES
2747
root 9.32313 15.1895 32.1121 -179.302 -171.439 -186.756
lowerback 4.71017 -3.74817 0.912882
upperback -5.87152 -4.60014 5.0905
thorax -8.49189 -2.13716 5.4423
lowerneck 1.10437 7.29863 9.93053
upperneck 4.15853 10.0133 -6.73922
head 2.09676 5.07701 -3.76751
rclavicle 1.98785e-014 -4.6118e-014
rhumerus -36.1323 0.539119 -71.3177
rradius 35.5386
rwrist 15.6248
rhand 1.03398 -51.2611
rfingers 7.12502
rthumb 26.5804 1000.58
lclavicle 1.98785e-014 -4.6118e-014
lhumerus -43.2202 10.3553 80.8531
lradius 35.9424
lwrist -15.036
lhand -3.87541 -35.6043
lfingers 7.12502
lthumb 21.8736 -6.82068
rfemur 5.34064 12.467 39.0064
rtibia 11.9895
rfoot -12.094 -31.9717
rtoes 27.8651
lfemur -31.47 16.3241 -17.3692
ltibia 46.0746
lfoot -27.9365 22.4839
ltoes -12.9287
2748
root 9.33566 15.1864 32.1866 -179.408 -171.565 -186.749
lowerback 4.4898 -3.74417 0.961125
upperback -5.6057 -4.60832 5.07834
thorax -8.0769 -2.15641 5.36133
lowerneck 0.880196 7.42873 10.2669
upperneck 3.9873 10.1724 -7.0078
head 2.13595 5.15293 -3.91093
rclavicle -5.14852e-014 -5.56597e-015
rhumerus -35.4349 0.659367 -71.3561
rradius 35.4202
rwrist 15.0697
rhand 0.694094 -51.3413
rfingers 7.12502
rthumb 26.255 1000.46
lclavicle -5.14852e-014 -5.56597e-015
lhumerus -42.8846 10.6006 80.6523
lradius 35.6406
lwrist -15.3297
lhand -3.60784 -35.5785
lfingers 7.12502
lthumb 22.1305 -6.82514
rfemur 6.12799 12.5057 39.007
rtibia 11.2907
rfoot -11.9558 -32.2174
rtoes 28.8195
lfemur -31.3166 16.3828 -17.786
ltibia 44.8621
lfoot -28.9395 23.591
ltoes -7.16206
2749
root 9.348 15.1891 32.2569 -179.48 -171.79 -186.675
lowerback 4.53142 -3.72901 1.0146
upperback -5.56234 -4.58627 5.02076
thorax -8.06455 -2.15071 5.26797
lowerneck 0.916636 7.46852 10.4968
upperneck 3.87973 10.2493 -7.53118
head 1.93133 5.17285 -3.71152
rclavicle 1.46107e-014 -1.66979e-014
rhumerus -35.1213 0.508853 -71.2094
rradius 35.2884
rwrist 14.9021
rhand 0.867787 -51.3154
rfingers 7.12502
rthumb 26.4213 1000.51
lclavicle 1.46107e-014 -1.66979e-014
lhumerus -42.846 10.3609 80.6116
lradius 35.4222
lwrist -15.346
lhand -3.63124 -35.1999
lfingers 7.12502
lthumb 22.108 -6.44378
rfemur 6.85767 12.6009 38.946
rtibia 10.5963
rfoot -12.0902 -32.6435
rtoes 30.9623
lfemur -31.2688 16.7993 -18.3887
ltibia 43.8324
lfoot -29.153 24.6809
ltoes -6.20984
2750
root 9.36011 15.1982 32.3288 -179.424 -171.978 -186.452
lowerback 4.42609 -3.71562 0.671754
upperback -5.56424 -4.59675 5.0946
thorax -7.97106 -2.13576 5.52977
lowerneck 0.961493 7.45746 10.4318
upperneck 3.52033 10.231 -7.68484
head 1.82022 5.15942 -3.75752
rclavicle -6.48038e-014 1.11319e-014
rhumerus -34.8456 0.312593 -70.8238
rradius 35.3183
rwrist 15.2794
rhand 1.29011 -51.2523
rfingers 7.12502
rthumb 26.8255 1000.63
lclavicle -6.48038e-014 1.11319e-014
lhumerus -42.9031 10.3674 80.7305
lradius 35.3398
lwrist -15.341
lhand -3.82267 -35.0271
lfingers 7.12502
lthumb 21.9242 -6.24941
rfemur 7.26138 12.596 38.7045
rtibia 10.1736
rfoot -12.0635 -32.8482
rtoes 31.2579
lfemur -31.3061 17.676 -19.3287
ltibia 42.9567
lfoot -29.4016 24.9595
ltoes -4.2936
2751
root 9.37339 15.2089 32.4054 -179.382 -172.121 -186.393
lowerback 4.83797 -3.63647 0.729968
upperback -5.94738 -4.45695 5.09698
thorax -8.64717 -2.04961 5.55345
lowerneck 1.4078 7.30805 10.1994
upperneck 3.21047 10.0392 -7.16244
head 1.77337 5.08548 -3.99224
rclavicle -2.38542e-014 -4.77083e-015
rhumerus -35.5303 0.849861 -70.8376
rradius 36.0083
rwrist 15.1382
rhand 1.16563 -52.6205
rfingers 7.12502
rthumb 26.7064 999.244
lclavicle -2.38542e-014 -4.77083e-015
lhumerus -43.579 10.1782 80.71
lradius 35.2223
lwrist -15.4374
lhand -3.92867 -35.3412
lfingers 7.12502
lthumb 21.8225 -6.55156
rfemur 7.66859 12.519 38.631
rtibia 9.81534
rfoot -11.041 -32.8361
rtoes 28.7059
lfemur -31.3295 18.3552 -20.0273
ltibia 42.2403
lfoot -30.2647 25.0251
ltoes 3.00256
2752
root 9.38914 15.2132 32.4801 -179.312 -172.352 -186.521
lowerback 4.60144 -3.62107 0.982391
upperback -5.84959 -4.42236 5.1303
thorax -8.42098 -2.05394 5.41502
lowerneck 1.30156 7.30874 10.1657
upperneck 2.98691 10.0229 -7.19471
head 1.71663 5.07222 -3.99689
rclavicle 3.12092e-014 -3.89618e-014
rhumerus -35.237 0.87612 -70.7233
rradius 35.9121
rwrist 15.198
rhand 0.956898 -52.382
rfingers 7.12502
rthumb 26.5066 999.452
lclavicle 3.12092e-014 -3.89618e-014
lhumerus -43.3931 10.0871 80.7051
lradius 35.0509
lwrist -15.6094
lhand -3.59774 -35.3631
lfingers 7.12502
lthumb 22.1402 -6.61087
rfemur 8.02938 12.3649 38.7219
rtibia 9.54427
rfoot -11.2642 -32.9251
rtoes 29.9922
lfemur -31.3997 18.8187 -20.495
ltibia 41.6039
lfoot -30.9983 25.1658
ltoes 11.4051
2753
root 9.40533 15.22 32.5539 -179.196 -172.551 -186.537
lowerback 4.30323 -3.62771 1.06055
upperback -5.73038 -4.43778 5.16475
thorax -8.1182 -2.07353 5.37355
lowerneck 0.800151 7.41982 10.42
upperneck 3.29859 10.1631 -7.85064
head 1.7822 5.11878 -3.8059
rclavicle -1.13108e-013 3.10104e-014
rhumerus -34.8038 0.694623 -70.5777
rradius 35.833
rwrist 15.4185
rhand 1.24129 -52.0251
rfingers 7.12502
rthumb 26.7788 999.85
lclavicle -1.13108e-013 3.10104e-014
lhumerus -43.2847 10.4513 80.5464
lradius 35.0616
lwrist -16.0668
lhand -2.86689 -34.8541
lfingers 7.12502
lthumb 22.8417 -6.18668
rfemur 8.31937 12.2597 38.6812
rtibia 9.26644
rfoot -13.0126 -33.0911
rtoes 34.0103
lfemur -31.5036 19.2788 -21.0937
ltibia 40.9784
lfoot -31.0461 25.8706
ltoes 15.1899
2754
root 9.42335 15.2318 32.6299 -179.119 -172.66 -186.38
lowerback 4.04156 -3.56396 0.998064
upperback -5.67629 -4.37114 5.12944
thorax -7.90901 -2.04358 5.33636
lowerneck 1.41274 7.28689 10.3981
upperneck 2.23138 9.99321 -7.68862
head 1.49009 5.05127 -4.23384
rclavicle 7.76254e-014 -6.99722e-014
rhumerus -34.5859 0.241393 -70.3385
rradius 35.9311
rwrist 15.8041
rhand 1.72943 -52.0544
rfingers 7.12502
rthumb 27.2458 999.893
lclavicle 7.76254e-014 -6.99722e-014
lhumerus -43.2651 10.7095 80.3994
lradius 34.8717
lwrist -16.455
lhand -2.75293 -35.0185
lfingers 7.12502
lthumb 22.9511 -6.36468
rfemur 8.60715 12.2372 38.4485
rtibia 9.0134
rfoot -14.0632 -33.2329
rtoes 35.1473
lfemur -31.4413 19.9235 -21.9146
ltibia 40.4205
lfoot -31.3083 26.097
ltoes 19.1473
2755
root 9.44613 15.2472 32.7044 -179.053 -172.923 -186.299
lowerback 3.8801 -3.5371 1.0982
upperback -5.62035 -4.3381 5.07229
thorax -7.7681 -2.03839 5.19772
lowerneck 0.922372 7.30607 10.4782
upperneck 2.39211 9.99047 -8.08559
head 1.49276 5.0278 -3.91592
rclavicle 5.58585e-014 -1.90833e-014
rhumerus -34.2525 -0.139708 -70.1526
rradius 35.8249
rwrist 15.9711
rhand 1.95827 -52.2096
rfingers 7.12502
rthumb 27.4647 999.773
lclavicle 5.58585e-014 -1.90833e-014
lhumerus -43.1082 10.4561 80.368
lradius 34.5945
lwrist -16.3869
lhand -3.09754 -35.9111
lfingers 7.12502
lthumb 22.6204 -7.21654
rfemur 8.87466 12.0649 38.2616
rtibia 8.74339
rfoot -13.1815 -33.4655
rtoes 33.5187
lfemur -31.3877 20.4868 -22.6333
ltibia 39.8906
lfoot -30.9697 26.6172
ltoes 23.2717
